<svg width="current" height="current" viewBox="0 0 647 167" fill="none" xmlns="http://www.w3.org/2000/svg">
<path d="M0 66.7426V0.931763H23.5973C31.7676 0.931763 37.9671 2.45474 42.1956 5.51863C46.4241 8.58252 48.5384 13.0619 48.5384 18.9567C48.5384 22.1819 47.6963 25.0128 45.9941 27.4675C44.292 29.9222 41.9447 31.7319 38.9167 32.8607C42.3748 33.7028 45.0982 35.405 47.0871 37.9671C49.0759 40.5293 50.0794 43.6649 50.0794 47.3738C50.0794 53.6987 48.0188 58.5006 43.8799 61.7437C39.7409 65.0047 33.864 66.653 26.2133 66.7247H0.0357606L0 66.7426ZM13.886 28.5068H24.1527C31.1584 28.3814 34.6523 25.6579 34.6523 20.3185C34.6523 17.3263 33.7565 15.194 32.0006 13.8861C30.2267 12.5781 27.4316 11.9152 23.5973 11.9152H13.886V28.5068ZM13.886 38.0926V55.8488H25.7833C29.0442 55.8488 31.6064 55.0963 33.434 53.5733C35.2615 52.0503 36.1933 49.9539 36.1933 47.2663C36.1933 41.2461 33.004 38.1822 26.6253 38.0926H13.904H13.886Z" fill="#231815"/>
<path d="M134.739 35.3154C134.739 41.8015 133.575 47.4814 131.227 52.3549C128.88 57.2285 125.53 61.009 121.158 63.6608C116.786 66.3126 111.787 67.6385 106.143 67.6385C100.499 67.6385 95.5717 66.3305 91.1998 63.6966C86.8279 61.0806 83.4236 57.336 81.0227 52.4624C78.6217 47.5889 77.4034 41.9986 77.3676 35.6737V32.4128C77.3676 25.9266 78.568 20.2288 80.951 15.3015C83.3341 10.3742 86.7204 6.59367 91.0744 3.9598C95.4462 1.32593 100.427 0 106.036 0C111.644 0 116.643 1.32593 120.997 3.9598C125.368 6.59367 128.737 10.3742 131.12 15.3015C133.503 20.2288 134.703 25.9087 134.703 32.359V35.2974L134.739 35.3154ZM120.674 32.3231C120.674 25.4249 119.402 20.1751 116.876 16.5916C114.349 13.0081 110.73 11.2164 106.053 11.2164C101.377 11.2164 97.8114 12.9902 95.2671 16.52C92.7407 20.0676 91.4506 25.2458 91.4327 32.0903V35.2974C91.4327 42.0165 92.7049 47.2304 95.2312 50.9394C97.7576 54.6483 101.395 56.4938 106.143 56.4938C110.891 56.4938 114.385 54.702 116.876 51.1364C119.366 47.5708 120.638 42.3569 120.674 35.5124V32.3053V32.3231Z" fill="#231815"/>
<path d="M219.095 35.3154C219.095 41.8015 217.93 47.4814 215.583 52.3549C213.236 57.2285 209.885 61.009 205.513 63.6608C201.142 66.3126 196.143 67.6385 190.499 67.6385C184.855 67.6385 179.927 66.3305 175.555 63.6966C171.184 61.0806 167.779 57.336 165.378 52.4624C162.977 47.5889 161.759 41.9986 161.723 35.6737V32.4128C161.723 25.9266 162.924 20.2288 165.307 15.3015C167.69 10.3742 171.076 6.59367 175.43 3.9598C179.802 1.32593 184.783 0 190.391 0C195.999 0 200.998 1.32593 205.352 3.9598C209.724 6.59367 213.093 10.3742 215.476 15.3015C217.859 20.2288 219.059 25.9087 219.059 32.359V35.2974L219.095 35.3154ZM205.03 32.3231C205.03 25.4249 203.758 20.1751 201.231 16.5916C198.705 13.0081 195.085 11.2164 190.409 11.2164C185.732 11.2164 182.167 12.9902 179.623 16.52C177.096 20.0676 175.806 25.2458 175.788 32.0903V35.2974C175.788 42.0165 177.06 47.2304 179.587 50.9394C182.113 54.6483 185.75 56.4938 190.499 56.4938C195.247 56.4938 198.741 54.702 201.231 51.1364C203.722 47.5708 204.994 42.3569 205.03 35.5124V32.3053V32.3231Z" fill="#231815"/>
<path d="M269.21 40.3502L261.989 47.9472V66.7426H248.103V0.931763H261.989V30.7643L268.099 22.5761L285.264 0.931763H302.339L278.42 30.1731L303.02 66.7426H286.5L269.192 40.3502H269.21Z" fill="#231815"/>
<path d="M345.341 0.931763L362.65 48.6639L379.851 0.931763H398.073V66.7426H384.151V48.7535L385.53 17.7025L367.344 66.7426H357.812L339.679 17.7384L341.059 48.7535V66.7426H327.173V0.931763H345.306H345.341Z" fill="#231815"/>
<path d="M468.004 53.1791H443.672L439.05 66.7426H424.286L449.352 0.931763H462.217L487.427 66.7426H472.663L467.986 53.1791H468.004ZM447.417 42.1956H464.26L455.803 17.5591L447.435 42.1956H447.417Z" fill="#231815"/>
<path d="M537.596 42.6436H526.541V66.7426H512.655V0.931763H537.685C545.641 0.931763 551.787 2.66969 556.105 6.12776C560.423 9.58584 562.573 14.4952 562.573 20.8201C562.573 25.3174 561.569 29.0622 559.581 32.0544C557.592 35.0466 554.582 37.4476 550.532 39.2214L565.099 66.1155V66.7426H550.21L537.578 42.6436H537.596ZM526.541 31.6602H537.739C541.215 31.6602 543.921 30.8002 545.838 29.0622C547.755 27.3242 548.705 24.9412 548.705 21.8952C548.705 18.8493 547.809 16.3587 545.999 14.5669C544.19 12.7931 541.43 11.8972 537.703 11.8972H526.559V31.6423L526.541 31.6602Z" fill="#231815"/>
<path d="M613.172 40.3502L605.951 47.9472V66.7426H592.065V0.931763H605.951V30.7643L612.061 22.5761L629.226 0.931763H646.301L622.381 30.1731L647 66.7426H630.48L613.172 40.3502Z" fill="#231815"/>
<path d="M170.135 165.826V122H185.508C190.579 122 194.431 122.985 197.083 124.974C199.735 126.963 201.061 129.92 201.061 133.861C201.061 135.868 200.505 137.678 199.394 139.272C198.283 140.885 196.671 142.121 194.521 142.999C196.94 143.644 198.821 144.845 200.147 146.619C201.473 148.392 202.136 150.525 202.136 153.015C202.136 157.136 200.792 160.29 198.086 162.493C195.381 164.697 191.528 165.808 186.494 165.808H170.135V165.826ZM177.929 140.455H185.562C187.981 140.455 189.88 139.917 191.242 138.842C192.604 137.767 193.284 136.244 193.284 134.291C193.284 132.123 192.657 130.565 191.385 129.597C190.113 128.629 188.16 128.146 185.49 128.146H177.911V140.455H177.929ZM177.929 146.045V159.734H186.583C189.02 159.734 190.937 159.143 192.317 157.96C193.696 156.778 194.377 155.129 194.377 153.033C194.377 148.482 191.994 146.153 187.228 146.045H177.929Z" fill="#231815"/>
<path d="M255.35 122.018V151.295C255.35 155.954 253.827 159.645 250.781 162.35C247.736 165.074 243.668 166.435 238.598 166.435C233.527 166.435 229.388 165.092 226.378 162.422C223.368 159.752 221.845 156.025 221.845 151.277V122.018H229.603V151.331C229.603 154.252 230.356 156.491 231.879 158.05C233.402 159.591 235.641 160.361 238.598 160.361C244.6 160.361 247.592 157.28 247.592 151.098V122.018H255.35Z" fill="#231815"/>
<path d="M311.862 165.826H304.068L284.072 134.739V165.826H276.278V122H284.072L304.122 153.212V122H311.844V165.826H311.862Z" fill="#231815"/>
<path d="M346.551 146.905L341.462 152.173V165.844H333.668V122.018H341.462V142.569L345.78 137.355L358.896 122H368.32L351.657 141.405L369.27 165.808H360.025L346.533 146.869L346.551 146.905Z" fill="#231815"/>
<path d="M412.272 146.26H393.852V159.752H415.389V165.826H386.058V122H415.174V128.146H393.852V140.24H412.272V146.26Z" fill="#231815"/>
<path d="M450.83 148.984H442.14V165.844H434.346V122.018H450.113C455.292 122.018 459.287 123.147 462.1 125.422C464.913 127.698 466.329 130.977 466.329 135.277C466.329 138.215 465.612 140.67 464.161 142.641C462.709 144.612 460.703 146.135 458.105 147.21L468.174 165.45V165.844H459.825L450.83 148.984ZM442.14 142.838H450.149C452.783 142.838 454.826 142.193 456.313 140.903C457.8 139.613 458.535 137.839 458.535 135.599C458.535 133.36 457.854 131.443 456.492 130.153C455.13 128.863 453.088 128.2 450.382 128.164H442.158V142.856L442.14 142.838Z" fill="#231815"/>
<path d="M630.041 143.197H509.743V147.73H630.041V143.197Z" fill="#231815"/>
<path d="M144.298 143.197H24V147.73H144.298V143.197Z" fill="#231815"/>
</svg>
