<svg width="620" height="746" viewBox="0 0 620 746" fill="none" xmlns="http://www.w3.org/2000/svg">
<path d="M66.1902 677.147V628.174H83.7502C89.8302 628.174 94.4435 629.307 97.5902 631.587C100.737 633.867 102.31 637.201 102.31 641.587C102.31 643.987 101.684 646.094 100.417 647.921C99.1502 649.747 97.4035 651.094 95.1502 651.934C97.7235 652.561 99.7502 653.827 101.23 655.734C102.71 657.641 103.457 659.974 103.457 662.734C103.457 667.441 101.924 671.014 98.8435 673.428C95.7635 675.854 91.3902 677.081 85.6969 677.134H66.2168L66.1902 677.147ZM76.5235 648.694H84.1635C89.3769 648.601 91.9768 646.574 91.9768 642.601C91.9768 640.374 91.3102 638.787 90.0035 637.814C88.6835 636.841 86.6035 636.347 83.7502 636.347H76.5235V648.694ZM76.5235 655.827V669.041H85.3769C87.8036 669.041 89.7102 668.481 91.0702 667.348C92.4302 666.214 93.1236 664.654 93.1236 662.654C93.1236 658.174 90.7502 655.894 86.0035 655.827H76.5369H76.5235Z" fill="#231815"/>
<path d="M166.457 653.761C166.457 658.588 165.59 662.814 163.844 666.441C162.097 670.068 159.604 672.881 156.35 674.854C153.097 676.828 149.377 677.814 145.177 677.814C140.977 677.814 137.31 676.841 134.057 674.881C130.804 672.934 128.27 670.148 126.484 666.521C124.697 662.894 123.79 658.734 123.764 654.028V651.601C123.764 646.774 124.657 642.534 126.43 638.867C128.204 635.201 130.724 632.387 133.964 630.427C137.217 628.467 140.924 627.481 145.097 627.481C149.27 627.481 152.99 628.467 156.23 630.427C159.484 632.387 161.99 635.201 163.764 638.867C165.537 642.534 166.43 646.761 166.43 651.561V653.747L166.457 653.761ZM155.99 651.534C155.99 646.401 155.044 642.494 153.164 639.827C151.284 637.161 148.59 635.827 145.11 635.827C141.63 635.827 138.977 637.147 137.084 639.774C135.204 642.414 134.244 646.268 134.23 651.361V653.747C134.23 658.747 135.177 662.627 137.057 665.387C138.937 668.147 141.644 669.521 145.177 669.521C148.71 669.521 151.31 668.187 153.164 665.534C155.017 662.881 155.964 659.001 155.99 653.907V651.521V651.534Z" fill="#231815"/>
<path d="M229.23 653.761C229.23 658.588 228.364 662.814 226.617 666.441C224.87 670.068 222.377 672.881 219.124 674.854C215.87 676.828 212.15 677.814 207.95 677.814C203.75 677.814 200.084 676.841 196.83 674.881C193.577 672.934 191.044 670.148 189.257 666.521C187.47 662.894 186.564 658.734 186.537 654.028V651.601C186.537 646.774 187.43 642.534 189.204 638.867C190.977 635.201 193.497 632.387 196.737 630.427C199.99 628.467 203.697 627.481 207.87 627.481C212.044 627.481 215.764 628.467 219.004 630.427C222.257 632.387 224.764 635.201 226.537 638.867C228.31 642.534 229.204 646.761 229.204 651.561V653.747L229.23 653.761ZM218.764 651.534C218.764 646.401 217.817 642.494 215.937 639.827C214.057 637.161 211.364 635.827 207.884 635.827C204.404 635.827 201.75 637.147 199.857 639.774C197.977 642.414 197.017 646.268 197.004 651.361V653.747C197.004 658.747 197.95 662.627 199.83 665.387C201.71 668.147 204.417 669.521 207.95 669.521C211.484 669.521 214.084 668.187 215.937 665.534C217.79 662.881 218.737 659.001 218.764 653.907V651.521V651.534Z" fill="#231815"/>
<path d="M266.524 657.507L261.15 663.161V677.147H250.817V628.174H261.15V650.374L265.697 644.281L278.47 628.174H291.177L273.377 649.934L291.684 677.147H279.39L266.51 657.507H266.524Z" fill="#231815"/>
<path d="M323.177 628.174L336.057 663.694L348.857 628.174H362.417V677.147H352.057V663.761L353.084 640.654L339.551 677.147H332.457L318.964 640.681L319.99 663.761V677.147H309.657V628.174H323.15H323.177Z" fill="#231815"/>
<path d="M414.457 667.054H396.35L392.911 677.147H381.924L400.577 628.174H410.15L428.911 677.147H417.924L414.444 667.054H414.457ZM399.137 658.881H411.67L405.377 640.547L399.15 658.881H399.137Z" fill="#231815"/>
<path d="M466.244 659.214H458.017V677.147H447.684V628.174H466.311C472.231 628.174 476.804 629.467 480.017 632.041C483.231 634.614 484.831 638.267 484.831 642.974C484.831 646.321 484.084 649.107 482.604 651.334C481.124 653.561 478.884 655.347 475.871 656.667L486.711 676.681V677.147H475.631L466.231 659.214H466.244ZM458.017 651.041H466.351C468.937 651.041 470.951 650.401 472.377 649.108C473.804 647.814 474.511 646.041 474.511 643.774C474.511 641.507 473.844 639.654 472.497 638.321C471.151 637.001 469.097 636.334 466.324 636.334H458.031V651.028L458.017 651.041Z" fill="#231815"/>
<path d="M522.484 657.507L517.111 663.161V677.147H506.777V628.174H517.111V650.374L521.657 644.281L534.431 628.174H547.137L529.337 649.934L547.657 677.147H535.364L522.484 657.507Z" fill="#231815"/>
<path d="M194.67 744.707V712.094H206.11C209.884 712.094 212.75 712.827 214.724 714.307C216.697 715.787 217.684 717.987 217.684 720.921C217.684 722.414 217.27 723.761 216.444 724.947C215.617 726.147 214.417 727.067 212.817 727.721C214.617 728.201 216.017 729.094 217.004 730.414C217.99 731.734 218.484 733.321 218.484 735.174C218.484 738.241 217.484 740.587 215.47 742.227C213.457 743.867 210.59 744.694 206.844 744.694H194.67V744.707ZM200.47 725.827H206.15C207.95 725.827 209.364 725.427 210.377 724.627C211.39 723.827 211.897 722.694 211.897 721.241C211.897 719.627 211.43 718.467 210.484 717.747C209.537 717.027 208.084 716.667 206.097 716.667H200.457V725.827H200.47ZM200.47 729.987V740.174H206.91C208.724 740.174 210.15 739.734 211.177 738.854C212.204 737.974 212.71 736.747 212.71 735.187C212.71 731.801 210.937 730.067 207.39 729.987H200.47Z" fill="#231815"/>
<path d="M258.084 712.107V733.894C258.084 737.361 256.95 740.107 254.684 742.121C252.417 744.147 249.39 745.161 245.617 745.161C241.844 745.161 238.764 744.161 236.524 742.174C234.284 740.187 233.15 737.414 233.15 733.881V712.107H238.924V733.921C238.924 736.094 239.484 737.761 240.617 738.921C241.75 740.067 243.417 740.641 245.617 740.641C250.084 740.641 252.31 738.347 252.31 733.747V712.107H258.084Z" fill="#231815"/>
<path d="M300.137 744.707H294.337L279.457 721.574V744.707H273.657V712.094H279.457L294.377 735.321V712.094H300.124V744.707H300.137Z" fill="#231815"/>
<path d="M325.95 730.627L322.164 734.547V744.721H316.364V712.107H322.164V727.401L325.377 723.521L335.137 712.094H342.151L329.751 726.534L342.857 744.694H335.977L325.937 730.601L325.95 730.627Z" fill="#231815"/>
<path d="M374.857 730.147H361.15V740.187H377.177V744.707H355.35V712.094H377.017V716.667H361.15V725.667H374.857V730.147Z" fill="#231815"/>
<path d="M403.551 732.174H397.084V744.721H391.284V712.107H403.017C406.871 712.107 409.844 712.947 411.937 714.641C414.03 716.334 415.084 718.774 415.084 721.974C415.084 724.161 414.551 725.987 413.471 727.454C412.391 728.921 410.897 730.054 408.964 730.854L416.457 744.428V744.721H410.244L403.551 732.174ZM397.084 727.601H403.044C405.004 727.601 406.524 727.121 407.631 726.161C408.737 725.201 409.284 723.881 409.284 722.214C409.284 720.547 408.777 719.121 407.764 718.161C406.75 717.201 405.231 716.707 403.217 716.681H397.097V727.614L397.084 727.601Z" fill="#231815"/>
<path d="M308.03 142.587C304.657 145.96 169.524 32.7867 49.5901 32.7867H9.05672C4.43005 32.7867 0.723426 36.6134 0.856759 41.2267L1.45678 61.4934V469.094C1.45678 473.667 3.09673 478.081 6.07006 481.561C9.5234 485.587 14.4834 488.001 19.7768 488.227C54.9102 489.721 195.417 501.147 290.937 588.507C292.71 590.121 295.004 591.041 297.404 591.041H313.87C316.057 591.041 318.177 590.307 319.87 588.934C337.097 575.027 440.19 496.761 591.457 486.774C596.697 486.427 601.657 484.321 605.591 480.854L605.777 480.681C610.857 476.201 613.804 469.774 613.871 463.014L618.817 37.8534C618.817 32.3334 614.084 28.0134 608.577 28.52C567.244 32.3067 409.99 52.2667 308.004 142.587H308.03ZM573.231 450.014C502.284 438.187 323.244 532.787 323.244 532.787V439.574C323.244 431.347 316.577 424.68 308.35 424.68H302.657C294.43 424.68 287.764 431.347 287.764 439.574V532.787C203.31 471.974 39.4568 448.334 39.4568 448.334V75.0134C174.59 75.0134 286.07 179.734 286.07 179.734V268.267C286.07 279.08 294.83 287.84 305.644 287.84C316.337 287.84 325.057 279.267 325.217 268.574L326.604 179.734C345.19 142.573 487.911 86.8268 487.911 86.8268V192.4L510.711 169.6L536.044 194.934V75.0001H573.204V449.987L573.231 450.014Z" fill="#231815"/>
<path d="M313.87 591.894H297.404C294.804 591.894 292.31 590.921 290.364 589.134C196.15 502.974 59.4035 490.774 19.7368 489.081C14.2301 488.841 9.01677 486.307 5.41677 482.121C2.3101 478.494 0.603449 473.881 0.603449 469.107V61.5067L0.00343178 41.2534C-0.063235 38.7867 0.843397 36.4534 2.55007 34.68C4.25673 32.9067 6.57681 31.9333 9.04348 31.9333H49.5768C144.724 31.9333 250.604 103.787 290.47 130.827C299.137 136.707 306.057 141.4 307.63 141.773C408.951 52.1734 563.524 31.7733 608.497 27.6533C611.364 27.4 614.204 28.3467 616.324 30.28C618.444 32.2133 619.657 34.96 619.657 37.8267L614.711 463.001C614.631 470.001 611.577 476.667 606.324 481.294L606.137 481.467C602.057 485.067 596.857 487.241 591.497 487.601C441.351 497.521 339.311 574.281 320.377 589.574C318.537 591.054 316.217 591.867 313.844 591.867L313.87 591.894ZM9.04348 33.64C7.04348 33.64 5.16345 34.4267 3.76345 35.8667C2.36344 37.3067 1.63011 39.2 1.68345 41.2134L2.28346 61.4801V469.107C2.28346 473.481 3.84346 477.707 6.6968 481.027C9.99014 484.867 14.7634 487.187 19.8034 487.401C59.6168 489.094 196.857 501.347 291.497 587.894C293.137 589.387 295.23 590.214 297.404 590.214H313.87C315.857 590.214 317.804 589.534 319.337 588.294C338.337 572.947 440.737 495.894 591.404 485.947C596.391 485.614 601.231 483.587 605.031 480.227L605.217 480.054C610.111 475.734 612.951 469.521 613.031 463.001L617.977 37.84C617.977 35.4534 616.964 33.16 615.204 31.5467C613.431 29.9334 611.057 29.1333 608.671 29.3467C563.791 33.4534 409.537 53.8 308.604 143.187C307.47 144.267 305.084 142.773 289.537 132.227C249.79 105.253 144.217 33.6134 49.5902 33.6134H9.05675L9.04348 33.64ZM288.59 534.427L287.257 533.467C203.937 473.481 40.9635 449.401 39.3235 449.161L38.6035 449.054V74.1734H39.4435C109.444 74.1734 172.924 102.707 213.857 126.653C258.19 152.587 286.364 178.867 286.644 179.134L286.91 179.387V268.28C286.91 278.614 295.31 287.014 305.644 287.014C315.977 287.014 324.217 278.747 324.377 268.574L325.764 179.547L325.844 179.374C344.35 142.347 481.764 88.3468 487.604 86.0667L488.751 85.6134V190.387L510.711 168.427L535.204 192.92V74.1867H574.057V451.014L573.071 450.854C503.244 439.214 325.404 532.587 323.617 533.534L322.377 534.187V439.574C322.377 431.827 316.07 425.52 308.324 425.52H302.63C294.884 425.52 288.577 431.827 288.577 439.574V534.441L288.59 534.427ZM302.644 423.827H308.337C317.017 423.827 324.071 430.88 324.071 439.56V531.374C340.031 523.081 504.457 438.774 572.377 449.014V75.8667H536.911V196.987L510.724 170.8L487.071 194.454V88.0801C473.484 93.4801 345.124 145.253 327.444 179.947L326.057 268.587C325.884 279.667 316.724 288.694 305.644 288.694C294.564 288.694 285.217 279.534 285.217 268.267V180.107C282.244 177.374 254.857 152.574 212.964 128.08C172.39 104.347 109.564 76.0801 40.2968 75.8534V447.574C52.2034 449.387 205.75 473.627 286.91 531.121V439.547C286.91 430.867 293.964 423.814 302.644 423.814V423.827Z" fill="#231815"/>
<path d="M316.51 120.973C283.337 84.6934 188.364 39.84 179.764 35.8267L187.404 1C253.284 14.6 302.604 95.7468 316.51 120.973Z" fill="#231815"/>
<path d="M188.044 2C227.897 10.5867 261.324 44.12 282.444 70.9334C295.964 88.0934 306.297 104.733 312.604 115.733C276.657 80.7334 192.537 40.8534 180.724 35.3467L188.044 2ZM186.75 0.0133362L178.79 36.3067C178.79 36.3067 293.444 89.1201 321.217 128.067C321.217 128.067 266.31 15.72 186.75 0V0.0133362Z" fill="#231815"/>
<path d="M328.777 120.973C342.684 95.7468 392.004 14.6 457.884 1L465.524 35.8267C456.924 39.84 361.964 84.6934 328.777 120.973Z" fill="#231815"/>
<path d="M457.231 2.00003L464.551 35.3467C452.737 40.8534 368.617 80.7335 332.671 115.733C338.977 104.733 349.311 88.0935 362.831 70.9334C383.951 44.1201 417.377 10.6 457.231 2.00003ZM458.524 0.0133667C378.964 15.7334 324.057 128.08 324.057 128.08C351.831 89.1335 466.484 36.3201 466.484 36.3201L458.524 0.0266978V0.0133667Z" fill="#231815"/>
<path d="M536.911 727.867H447.391V731.241H536.911V727.867Z" fill="#231815"/>
<path d="M175.444 727.867H85.9235V731.241H175.444V727.867Z" fill="#231815"/>
</svg>
