<svg width="1018" height="753" viewBox="0 0 1018 753" fill="none" xmlns="http://www.w3.org/2000/svg">
<path d="M535.056 453.819C549.003 469.459 555.11 490.726 553.39 517.632C551.67 546.219 538.763 569.686 514.67 588.006C490.576 606.326 460.283 615.499 423.803 615.499H264.269V254.806H423.283C455.976 254.806 482.31 263.046 502.27 279.526C522.23 296.006 533.936 315.179 537.376 337.032C540.816 359.566 537.456 378.232 527.31 393.032C517.15 407.832 507.083 418.086 497.11 423.806C508.47 428.179 521.11 438.179 535.056 453.819ZM454.003 386.472C463.47 379.086 468.203 368.819 468.203 355.699C468.203 343.926 463.376 334.352 453.75 326.939C444.11 319.552 431.03 315.846 414.51 315.846H330.869V397.566H413.99C431.19 397.566 444.536 393.872 454.003 386.472ZM468.456 540.326C478.27 530.232 483.176 518.979 483.176 506.526C483.176 494.072 478.443 483.326 468.976 473.232C459.51 463.139 443.59 458.099 421.216 458.099H330.869V555.459H419.15C442.203 555.459 458.643 550.419 468.456 540.326Z" fill="#231815"/>
<path d="M607.19 570.259C607.19 574.899 606.363 578.966 604.723 582.472C603.083 585.979 600.736 588.659 597.683 590.539C594.63 592.419 591.123 593.352 587.15 593.352C583.176 593.352 579.723 592.419 576.656 590.539C573.59 588.659 571.216 585.992 569.536 582.526C567.856 579.059 567.016 575.059 566.99 570.526V567.859C566.99 563.246 567.83 559.166 569.496 555.632C571.176 552.099 573.536 549.392 576.589 547.526C579.643 545.646 583.136 544.712 587.083 544.712C591.03 544.712 594.536 545.646 597.576 547.486C600.63 549.339 602.976 552.006 604.643 555.486C606.31 558.966 607.15 563.019 607.176 567.632V570.259H607.19ZM598.776 567.792C598.776 562.552 597.763 558.526 595.736 555.726C593.71 552.926 590.829 551.526 587.096 551.526C583.363 551.526 580.616 552.912 578.563 555.699C576.51 558.486 575.456 562.419 575.416 567.512V570.246C575.416 575.446 576.456 579.472 578.523 582.312C580.59 585.152 583.47 586.579 587.163 586.579C590.856 586.579 593.763 585.192 595.763 582.419C597.776 579.646 598.776 575.592 598.776 570.259V567.792Z" fill="#231815"/>
<path d="M667.87 570.259C667.87 574.899 667.043 578.966 665.403 582.472C663.763 585.979 661.416 588.659 658.363 590.539C655.31 592.419 651.803 593.352 647.83 593.352C643.857 593.352 640.403 592.419 637.336 590.539C634.27 588.659 631.896 585.992 630.216 582.526C628.536 579.059 627.696 575.059 627.67 570.526V567.859C627.67 563.246 628.51 559.166 630.176 555.632C631.856 552.099 634.216 549.392 637.27 547.526C640.323 545.646 643.816 544.712 647.763 544.712C651.71 544.712 655.216 545.646 658.256 547.486C661.31 549.339 663.656 552.006 665.323 555.486C666.99 558.966 667.83 563.019 667.856 567.632V570.259H667.87ZM659.456 567.792C659.456 562.552 658.443 558.526 656.416 555.726C654.39 552.926 651.51 551.526 647.776 551.526C644.043 551.526 641.296 552.912 639.243 555.699C637.19 558.486 636.136 562.419 636.096 567.512V570.246C636.096 575.446 637.136 579.472 639.203 582.312C641.27 585.152 644.15 586.579 647.843 586.579C651.536 586.579 654.443 585.192 656.443 582.419C658.456 579.646 659.456 575.592 659.456 570.259V567.792Z" fill="#231815"/>
<path d="M703.79 572.246L698.296 577.939V592.699H689.883V545.366H698.296V567.579L702.95 561.952L717.123 545.366H727.31L709.31 566.339L728.35 592.712H718.363L703.79 572.259V572.246Z" fill="#231815"/>
<path d="M757.377 545.352L771.35 581.632L785.297 545.352H796.176V592.686H787.79V577.072L788.617 556.192L774.31 592.672H768.283L754.003 556.219L754.83 577.059V592.672H746.443V545.339H757.363L757.377 545.352Z" fill="#231815"/>
<path d="M847.484 581.672H828.71L824.777 592.699H816.03L834.337 545.366H841.897L860.23 592.699H851.443L847.484 581.672ZM831.083 575.046H845.123L838.097 555.406L831.07 575.046H831.083Z" fill="#231815"/>
<path d="M897.15 574.486H887.764V592.699H879.35V545.366H896.39C901.977 545.366 906.297 546.592 909.337 549.046C912.377 551.499 913.897 555.046 913.897 559.686C913.897 562.859 913.11 565.512 911.55 567.646C909.99 569.779 907.803 571.419 905.017 572.579L915.897 592.299V592.726H906.883L897.164 574.512L897.15 574.486ZM887.764 567.859H896.417C899.257 567.859 901.47 567.166 903.07 565.766C904.67 564.366 905.47 562.459 905.47 560.032C905.47 557.606 904.737 555.539 903.257 554.152C901.777 552.766 899.577 552.046 896.657 552.006H887.777V567.872L887.764 567.859Z" fill="#231815"/>
<path d="M949.403 572.246L943.91 577.939V592.699H935.497V545.366H943.91V567.579L948.563 561.952L962.737 545.366H972.923L954.923 566.339L973.963 592.712H963.977L949.403 572.259V572.246Z" fill="#231815"/>
<path d="M306.443 701.739V734.913C306.443 740.193 304.723 744.366 301.256 747.446C297.803 750.526 293.203 752.073 287.456 752.073C281.709 752.073 277.016 750.553 273.603 747.526C270.176 744.486 268.469 740.286 268.469 734.886V701.739H277.269V734.953C277.269 738.273 278.136 740.806 279.856 742.553C281.576 744.299 284.109 745.179 287.469 745.179C294.256 745.179 297.656 741.686 297.656 734.673V701.739H306.443Z" fill="#231815"/>
<path d="M370.456 751.393H361.629L338.976 716.166V751.393H330.149V701.739H338.976L361.696 737.099V701.739H370.456V751.393Z" fill="#231815"/>
<path d="M409.776 729.939L404.016 735.913V751.393H395.189V701.739H404.016V725.033L408.896 719.139L423.763 701.753H434.443L415.563 723.753L435.523 751.406H425.056L409.776 729.953V729.939Z" fill="#231815"/>
<path d="M484.23 729.233H463.363V744.513H487.75V751.406H454.523V701.753H487.496V708.713H463.35V722.419H484.216V729.233H484.23Z" fill="#231815"/>
<path d="M527.91 732.299H518.07V751.393H509.243V701.739H527.109C532.976 701.739 537.496 703.019 540.683 705.593C543.87 708.166 545.47 711.886 545.47 716.753C545.47 720.073 544.643 722.859 543.003 725.099C541.363 727.339 539.083 729.059 536.15 730.273L547.563 750.953V751.393H538.109L527.923 732.299H527.91ZM518.07 725.339H527.136C530.11 725.339 532.443 724.606 534.109 723.139C535.789 721.673 536.616 719.673 536.616 717.126C536.616 714.579 535.843 712.406 534.296 710.953C532.75 709.499 530.443 708.753 527.363 708.699H518.043V725.339H518.07Z" fill="#231815"/>
<path d="M70.6558 343.486H0.722412V682.206H70.6558V343.486Z" fill="#231815"/>
<path d="M135.709 0.0585327H107.482V682.219H135.709V0.0585327Z" fill="#231815"/>
<path d="M222.669 169.419H173.349V682.219H222.669V169.419Z" fill="#231815"/>
<path d="M1017.08 635.633H263.443V682.219H1017.08V635.633Z" fill="#231815"/>
</svg>
